<?xml version="1.0" encoding="UTF-8" standalone="no" ?>
<!DOCTYPE svg PUBLIC "-//W3C//DTD SVG 1.1//EN" "http://www.w3.org/Graphics/SVG/1.1/DTD/svg11.dtd">
<svg xmlns="http://www.w3.org/2000/svg" xmlns:xlink="http://www.w3.org/1999/xlink" version="1.1" width="595.9205921936035" height="267.61999999999995" xml:space="preserve">
<desc>Created with Fabric.js 1.6.0-rc.1</desc>
<defs></defs>
  <g transform="translate(299.72 103.77) scale(3.51 3.51)">
   <text font-family="Bombardier" font-size="40" font-weight="normal" style="stroke: none; stroke-width: 1; stroke-dasharray: none; stroke-linecap: butt; stroke-linejoin: miter; stroke-miterlimit: 10; fill: #006699; fill-rule: nonzero; opacity: 1;" ><tspan x="-82.04" y="8.98" style="stroke: none; stroke-width: 0; stroke-dasharray: none; stroke-linecap: butt; stroke-linejoin: miter; stroke-miterlimit: 4; fill: #006699; fill-rule: ; opacity: 1;">B</tspan><tspan x="-62.12" y="8.98" style="stroke: none; stroke-width: 0; stroke-dasharray: none; stroke-linecap: butt; stroke-linejoin: miter; stroke-miterlimit: 4; fill: #006699; fill-rule: ; opacity: 1;">l</tspan><tspan x="-53.44" y="8.98" style="stroke: none; stroke-width: 0; stroke-dasharray: none; stroke-linecap: butt; stroke-linejoin: miter; stroke-miterlimit: 4; fill: #006699; fill-rule: ; opacity: 1;">o</tspan><tspan x="-33.52" y="8.98" style="stroke: none; stroke-width: 0; stroke-dasharray: none; stroke-linecap: butt; stroke-linejoin: miter; stroke-miterlimit: 4; fill: #006699; fill-rule: ; opacity: 1;">g</tspan><tspan x="-13.6" y="8.98" style="stroke: none; stroke-width: 0; stroke-dasharray: none; stroke-linecap: butt; stroke-linejoin: miter; stroke-miterlimit: 4; fill: #006699; fill-rule: ; opacity: 1;"> </tspan><tspan x="-3.6" y="8.98" style="stroke: none; stroke-width: 0; stroke-dasharray: none; stroke-linecap: butt; stroke-linejoin: miter; stroke-miterlimit: 4; fill: #006699; fill-rule: ; opacity: 1;">C</tspan><tspan x="14.84" y="8.98" style="stroke: none; stroke-width: 0; stroke-dasharray: none; stroke-linecap: butt; stroke-linejoin: miter; stroke-miterlimit: 4; fill: #006699; fill-rule: ; opacity: 1;">h</tspan><tspan x="34.36" y="8.98" style="stroke: none; stroke-width: 0; stroke-dasharray: none; stroke-linecap: butt; stroke-linejoin: miter; stroke-miterlimit: 4; fill: #006699; fill-rule: ; opacity: 1;">a</tspan><tspan x="53.88" y="8.98" style="stroke: none; stroke-width: 0; stroke-dasharray: none; stroke-linecap: butt; stroke-linejoin: miter; stroke-miterlimit: 4; fill: #006699; fill-rule: ; opacity: 1;">i</tspan><tspan x="62.52" y="8.98" style="stroke: none; stroke-width: 0; stroke-dasharray: none; stroke-linecap: butt; stroke-linejoin: miter; stroke-miterlimit: 4; fill: #006699; fill-rule: ; opacity: 1;">n</tspan></text>
 </g>
<g style="stroke: none; stroke-width: 1; stroke-dasharray: none; stroke-linecap: butt; stroke-linejoin: miter; stroke-miterlimit: 10; fill: none; fill-rule: nonzero; opacity: 1;" transform="translate(136.42999999999995 140.98999999999995) scale(2.14 2.14)" >
  <circle cx="26" cy="40.5" r="12" style="stroke: #AFB6BB; stroke-width: 2; stroke-dasharray: none; stroke-linecap: butt; stroke-linejoin: miter; stroke-miterlimit: 10; fill: none; fill-rule: nonzero; opacity: 1;" transform="  matrix(1 0 0 1 0 0) "/>
  <path d="M 6 16.5 v 17.514 v -0.973 C 6 43.796 14.704 52.5 25.459 52.5 C 38.367 52.5 49 45.056 49 32.149 V 27.5" style="stroke: #AFB6BB; stroke-width: 2; stroke-dasharray: none; stroke-linecap: butt; stroke-linejoin: miter; stroke-miterlimit: 10; fill: none; fill-rule: nonzero; opacity: 1;" transform=" matrix(1 0 0 1 0 0) " stroke-linecap="round" />
  <circle cx="26" cy="37.5" r="15" style="stroke: #AFB6BB; stroke-width: 2; stroke-dasharray: none; stroke-linecap: butt; stroke-linejoin: miter; stroke-miterlimit: 10; fill: none; fill-rule: nonzero; opacity: 1;" transform="  matrix(1 0 0 1 0 0) "/>
  <path d="M 11 8.5 v -7 H 1 v 7 H 0 v 5.206 C 0 14.144 0.356 14.5 0.794 14.5 H 4 v -2 h 4 v 2 h 3.206 c 0.439 0 0.794 -0.356 0.794 -0.794 V 8.5 H 11 z" style="stroke: none; stroke-width: 1; stroke-dasharray: none; stroke-linecap: butt; stroke-linejoin: miter; stroke-miterlimit: 10; fill: #E7ECED; fill-rule: nonzero; opacity: 1;" transform=" matrix(1 0 0 1 0 0) " stroke-linecap="round" />
  <path d="M 6 18.5 c -1.654 0 -3 -1.346 -3 -3 v -4 h 6 v 4 C 9 17.154 7.654 18.5 6 18.5 z M 5 13.5 v 2 c 0 0.552 0.449 1 1 1 s 1 -0.448 1 -1 v -2 H 5 z" style="stroke: none; stroke-width: 1; stroke-dasharray: none; stroke-linecap: butt; stroke-linejoin: miter; stroke-miterlimit: 10; fill: #AFB6BB; fill-rule: nonzero; opacity: 1;" transform=" matrix(1 0 0 1 0 0) " stroke-linecap="round" />
  <path d="M 6 18.5 c -1.654 0 -3 -1.346 -3 -3 v -4 h 6 v 4 C 9 17.154 7.654 18.5 6 18.5 z M 5 13.5 v 2 c 0 0.552 0.449 1 1 1 s 1 -0.448 1 -1 v -2 H 5 z" style="stroke: none; stroke-width: 1; stroke-dasharray: none; stroke-linecap: butt; stroke-linejoin: miter; stroke-miterlimit: 10; fill: #AFB6BB; fill-rule: nonzero; opacity: 1;" transform=" matrix(1 0 0 1 0 0) " stroke-linecap="round" />
  <path d="M 6 18.5 c -1.654 0 -3 -1.346 -3 -3 v -4 h 6 v 4 C 9 17.154 7.654 18.5 6 18.5 z M 5 13.5 v 2 c 0 0.552 0.449 1 1 1 s 1 -0.448 1 -1 v -2 H 5 z" style="stroke: none; stroke-width: 1; stroke-dasharray: none; stroke-linecap: butt; stroke-linejoin: miter; stroke-miterlimit: 10; fill: #AFB6BB; fill-rule: nonzero; opacity: 1;" transform=" matrix(1 0 0 1 0 0) " stroke-linecap="round" />
  <path d="M 3 11.5 v 4 c 0 1.654 1.346 3 3 3 s 3 -1.346 3 -3 v -4 H 3 z" style="stroke: none; stroke-width: 1; stroke-dasharray: none; stroke-linecap: butt; stroke-linejoin: miter; stroke-miterlimit: 10; fill: #AFB6BB; fill-rule: nonzero; opacity: 1;" transform=" matrix(1 0 0 1 0 0) " stroke-linecap="round" />
  <rect x="3" y="1.5" rx="0" ry="0" width="2" height="3" style="stroke: none; stroke-width: 1; stroke-dasharray: none; stroke-linecap: butt; stroke-linejoin: miter; stroke-miterlimit: 10; fill: #AFB6BB; fill-rule: nonzero; opacity: 1;" transform=" matrix(1 0 0 1 0 0) "/>
  <rect x="7" y="1.5" rx="0" ry="0" width="2" height="3" style="stroke: none; stroke-width: 1; stroke-dasharray: none; stroke-linecap: butt; stroke-linejoin: miter; stroke-miterlimit: 10; fill: #AFB6BB; fill-rule: nonzero; opacity: 1;" transform=" matrix(1 0 0 1 0 0) "/>
  <rect x="3" y="5.5" rx="0" ry="0" width="6" height="2" style="stroke: none; stroke-width: 1; stroke-dasharray: none; stroke-linecap: butt; stroke-linejoin: miter; stroke-miterlimit: 10; fill: #AFB6BB; fill-rule: nonzero; opacity: 1;" transform=" matrix(1 0 0 1 0 0) "/>
  <path d="M 54 18.5 v -7 H 44 v 7 h -1 v 5.206 c 0 0.439 0.356 0.794 0.794 0.794 H 47 v -2 h 4 v 2 h 3.206 c 0.439 0 0.794 -0.356 0.794 -0.794 V 18.5 H 54 z" style="stroke: none; stroke-width: 1; stroke-dasharray: none; stroke-linecap: butt; stroke-linejoin: miter; stroke-miterlimit: 10; fill: #E7ECED; fill-rule: nonzero; opacity: 1;" transform=" matrix(1 0 0 1 0 0) " stroke-linecap="round" />
  <rect x="46" y="11.5" rx="0" ry="0" width="2" height="3" style="stroke: none; stroke-width: 1; stroke-dasharray: none; stroke-linecap: butt; stroke-linejoin: miter; stroke-miterlimit: 10; fill: #AFB6BB; fill-rule: nonzero; opacity: 1;" transform=" matrix(1 0 0 1 0 0) "/>
  <rect x="50" y="11.5" rx="0" ry="0" width="2" height="3" style="stroke: none; stroke-width: 1; stroke-dasharray: none; stroke-linecap: butt; stroke-linejoin: miter; stroke-miterlimit: 10; fill: #AFB6BB; fill-rule: nonzero; opacity: 1;" transform=" matrix(1 0 0 1 0 0) "/>
  <rect x="46" y="15.5" rx="0" ry="0" width="6" height="2" style="stroke: none; stroke-width: 1; stroke-dasharray: none; stroke-linecap: butt; stroke-linejoin: miter; stroke-miterlimit: 10; fill: #AFB6BB; fill-rule: nonzero; opacity: 1;" transform=" matrix(1 0 0 1 0 0) "/>
  <path d="M 46 22.5 v 4 c 0 1.654 1.346 3 3 3 s 3 -1.346 3 -3 v -4 H 46 z" style="stroke: none; stroke-width: 1; stroke-dasharray: none; stroke-linecap: butt; stroke-linejoin: miter; stroke-miterlimit: 10; fill: #AFB6BB; fill-rule: nonzero; opacity: 1;" transform=" matrix(1 0 0 1 0 0) " stroke-linecap="round" />
</g>
  <g transform="translate(426.19 167.71) scale(0.68 1)">
   <text font-family="Bombardier" font-size="40" font-weight="normal" style="stroke: none; stroke-width: 1; stroke-dasharray: none; stroke-linecap: butt; stroke-linejoin: miter; stroke-miterlimit: 10; fill: #00ffcc; fill-rule: nonzero; opacity: 1;" ><tspan x="-228.14" y="8.98" style="stroke: none; stroke-width: 0; stroke-dasharray: none; stroke-linecap: butt; stroke-linejoin: miter; stroke-miterlimit: 4; fill: #00ffcc; fill-rule: ; opacity: 1;">Y</tspan><tspan x="-209.06" y="8.98" style="stroke: none; stroke-width: 0; stroke-dasharray: none; stroke-linecap: butt; stroke-linejoin: miter; stroke-miterlimit: 4; fill: #00ffcc; fill-rule: ; opacity: 1;">o</tspan><tspan x="-189.14" y="8.98" style="stroke: none; stroke-width: 0; stroke-dasharray: none; stroke-linecap: butt; stroke-linejoin: miter; stroke-miterlimit: 4; fill: #00ffcc; fill-rule: ; opacity: 1;">u</tspan><tspan x="-169.62" y="8.98" style="stroke: none; stroke-width: 0; stroke-dasharray: none; stroke-linecap: butt; stroke-linejoin: miter; stroke-miterlimit: 4; fill: #00ffcc; fill-rule: ; opacity: 1;">&apos;</tspan><tspan x="-161.18" y="8.98" style="stroke: none; stroke-width: 0; stroke-dasharray: none; stroke-linecap: butt; stroke-linejoin: miter; stroke-miterlimit: 4; fill: #00ffcc; fill-rule: ; opacity: 1;">r</tspan><tspan x="-145.78" y="8.98" style="stroke: none; stroke-width: 0; stroke-dasharray: none; stroke-linecap: butt; stroke-linejoin: miter; stroke-miterlimit: 4; fill: #00ffcc; fill-rule: ; opacity: 1;">e</tspan><tspan x="-126.06" y="8.98" style="stroke: none; stroke-width: 0; stroke-dasharray: none; stroke-linecap: butt; stroke-linejoin: miter; stroke-miterlimit: 4; fill: #00ffcc; fill-rule: ; opacity: 1;"> </tspan><tspan x="-116.06" y="8.98" style="stroke: none; stroke-width: 0; stroke-dasharray: none; stroke-linecap: butt; stroke-linejoin: miter; stroke-miterlimit: 4; fill: #00ffcc; fill-rule: ; opacity: 1;">o</tspan><tspan x="-96.14" y="8.98" style="stroke: none; stroke-width: 0; stroke-dasharray: none; stroke-linecap: butt; stroke-linejoin: miter; stroke-miterlimit: 4; fill: #00ffcc; fill-rule: ; opacity: 1;">n</tspan><tspan x="-76.62" y="8.98" style="stroke: none; stroke-width: 0; stroke-dasharray: none; stroke-linecap: butt; stroke-linejoin: miter; stroke-miterlimit: 4; fill: #00ffcc; fill-rule: ; opacity: 1;">l</tspan><tspan x="-67.94" y="8.98" style="stroke: none; stroke-width: 0; stroke-dasharray: none; stroke-linecap: butt; stroke-linejoin: miter; stroke-miterlimit: 4; fill: #00ffcc; fill-rule: ; opacity: 1;">y</tspan><tspan x="-49.26" y="8.98" style="stroke: none; stroke-width: 0; stroke-dasharray: none; stroke-linecap: butt; stroke-linejoin: miter; stroke-miterlimit: 4; fill: #00ffcc; fill-rule: ; opacity: 1;"> </tspan><tspan x="-39.26" y="8.98" style="stroke: none; stroke-width: 0; stroke-dasharray: none; stroke-linecap: butt; stroke-linejoin: miter; stroke-miterlimit: 4; fill: #00ffcc; fill-rule: ; opacity: 1;">a</tspan><tspan x="-19.74" y="8.98" style="stroke: none; stroke-width: 0; stroke-dasharray: none; stroke-linecap: butt; stroke-linejoin: miter; stroke-miterlimit: 4; fill: #00ffcc; fill-rule: ; opacity: 1;"> </tspan><tspan x="-9.74" y="8.98" style="stroke: none; stroke-width: 0; stroke-dasharray: none; stroke-linecap: butt; stroke-linejoin: miter; stroke-miterlimit: 4; fill: #00ffcc; fill-rule: ; opacity: 1;">s</tspan><tspan x="8.98" y="8.98" style="stroke: none; stroke-width: 0; stroke-dasharray: none; stroke-linecap: butt; stroke-linejoin: miter; stroke-miterlimit: 4; fill: #00ffcc; fill-rule: ; opacity: 1;">t</tspan><tspan x="21.34" y="8.98" style="stroke: none; stroke-width: 0; stroke-dasharray: none; stroke-linecap: butt; stroke-linejoin: miter; stroke-miterlimit: 4; fill: #00ffcc; fill-rule: ; opacity: 1;">r</tspan><tspan x="36.74" y="8.98" style="stroke: none; stroke-width: 0; stroke-dasharray: none; stroke-linecap: butt; stroke-linejoin: miter; stroke-miterlimit: 4; fill: #00ffcc; fill-rule: ; opacity: 1;">a</tspan><tspan x="56.26" y="8.98" style="stroke: none; stroke-width: 0; stroke-dasharray: none; stroke-linecap: butt; stroke-linejoin: miter; stroke-miterlimit: 4; fill: #00ffcc; fill-rule: ; opacity: 1;">n</tspan><tspan x="75.78" y="8.98" style="stroke: none; stroke-width: 0; stroke-dasharray: none; stroke-linecap: butt; stroke-linejoin: miter; stroke-miterlimit: 4; fill: #00ffcc; fill-rule: ; opacity: 1;">g</tspan><tspan x="95.7" y="8.98" style="stroke: none; stroke-width: 0; stroke-dasharray: none; stroke-linecap: butt; stroke-linejoin: miter; stroke-miterlimit: 4; fill: #00ffcc; fill-rule: ; opacity: 1;">e</tspan><tspan x="115.42" y="8.98" style="stroke: none; stroke-width: 0; stroke-dasharray: none; stroke-linecap: butt; stroke-linejoin: miter; stroke-miterlimit: 4; fill: #00ffcc; fill-rule: ; opacity: 1;">r</tspan><tspan x="130.82" y="8.98" style="stroke: none; stroke-width: 0; stroke-dasharray: none; stroke-linecap: butt; stroke-linejoin: miter; stroke-miterlimit: 4; fill: #00ffcc; fill-rule: ; opacity: 1;"> </tspan><tspan x="140.82" y="8.98" style="stroke: none; stroke-width: 0; stroke-dasharray: none; stroke-linecap: butt; stroke-linejoin: miter; stroke-miterlimit: 4; fill: #00ffcc; fill-rule: ; opacity: 1;">o</tspan><tspan x="160.74" y="8.98" style="stroke: none; stroke-width: 0; stroke-dasharray: none; stroke-linecap: butt; stroke-linejoin: miter; stroke-miterlimit: 4; fill: #00ffcc; fill-rule: ; opacity: 1;">n</tspan><tspan x="180.26" y="8.98" style="stroke: none; stroke-width: 0; stroke-dasharray: none; stroke-linecap: butt; stroke-linejoin: miter; stroke-miterlimit: 4; fill: #00ffcc; fill-rule: ; opacity: 1;">c</tspan><tspan x="198.58" y="8.98" style="stroke: none; stroke-width: 0; stroke-dasharray: none; stroke-linecap: butt; stroke-linejoin: miter; stroke-miterlimit: 4; fill: #00ffcc; fill-rule: ; opacity: 1;">e</tspan><tspan x="218.3" y="8.98" style="stroke: none; stroke-width: 0; stroke-dasharray: none; stroke-linecap: butt; stroke-linejoin: miter; stroke-miterlimit: 4; fill: #00ffcc; fill-rule: ; opacity: 1;">.</tspan></text>
 </g>
</svg>